<svg xmlns="http://www.w3.org/2000/svg" viewBox="0 0 24 30" fill="none" x="0px" y="0px"><path d="M23.641 18.9857L14.732 2.14368C13.931 0.634677 12.059 0.0606769 10.55 0.861677C10.004 1.15168 9.55796 1.59768 9.26796 2.14368L0.358956 18.9857C-0.434044 20.4897 0.141956 22.3527 1.64696 23.1457C2.09196 23.3807 2.58896 23.5027 3.09196 23.5007H20.908C22.608 23.5057 23.991 22.1317 23.996 20.4307C23.998 19.9267 23.876 19.4307 23.641 18.9857ZM12 20.5007C11.172 20.5007 10.5 19.8287 10.5 19.0007C10.5 18.1727 11.172 17.5007 12 17.5007C12.828 17.5007 13.5 18.1727 13.5 19.0007C13.5 19.8287 12.828 20.5007 12 20.5007ZM12.53 15.5007H11.469C11.205 15.5007 10.986 15.2957 10.97 15.0317L10.532 8.03168C10.514 7.74368 10.743 7.50068 11.031 7.50068H12.967C13.255 7.50068 13.484 7.74368 13.466 8.03168L13.028 15.0317C13.012 15.2957 12.794 15.5007 12.53 15.5007Z" fill="black"/><text x="0" y="39" fill="#000000" font-size="5px" font-weight="bold" font-family="'Helvetica Neue', Helvetica, Arial-Unicode, Arial, Sans-serif">Created by Naz</text><text x="0" y="44" fill="#000000" font-size="5px" font-weight="bold" font-family="'Helvetica Neue', Helvetica, Arial-Unicode, Arial, Sans-serif">from the Noun Project</text></svg>