<?xml version="1.0" encoding="UTF-8"?>
<!DOCTYPE svg PUBLIC "-//W3C//DTD SVG 1.1//EN" "http://www.w3.org/Graphics/SVG/1.1/DTD/svg11.dtd">
<svg xmlns="http://www.w3.org/2000/svg" version="1.1" width="1649px" height="1000px" style="shape-rendering:geometricPrecision; text-rendering:geometricPrecision; image-rendering:optimizeQuality; fill-rule:evenodd; clip-rule:evenodd" xmlns:xlink="http://www.w3.org/1999/xlink">
<g><path style="opacity:1" fill="#fefefe" d="M -0.5,-0.5 C 549.167,-0.5 1098.83,-0.5 1648.5,-0.5C 1648.5,332.833 1648.5,666.167 1648.5,999.5C 1098.83,999.5 549.167,999.5 -0.5,999.5C -0.5,666.167 -0.5,332.833 -0.5,-0.5 Z"/></g>
<g><path style="opacity:1" fill="#000000" d="M 260.5,210.5 C 607.5,210.333 954.5,210.5 1301.5,211C 1320.31,215.966 1334.48,226.799 1344,243.5C 1346.94,254.271 1348.28,265.271 1348,276.5C 1347.39,410.828 1347.39,545.161 1348,679.5C 1349.13,685.897 1349.63,692.397 1349.5,699C 1350.54,717.722 1348.04,735.889 1342,753.5C 1336.55,762.621 1329.38,770.121 1320.5,776C 1315.75,778.416 1310.75,780.083 1305.5,781C 1298.61,781.063 1291.94,782.23 1285.5,784.5C 1283.61,784.564 1281.94,784.064 1280.5,783C 930.5,782.667 580.5,782.333 230.5,782C 203.084,783.222 183.918,771.389 173,746.5C 172.333,741.833 171.667,737.167 171,732.5C 170.651,574.152 170.317,415.818 170,257.5C 176.119,233.05 191.619,218.55 216.5,214C 231.322,212.865 245.989,211.699 260.5,210.5 Z"/></g>
<g><path style="opacity:1" fill="#fefefe" d="M 1331.5,297.5 C 1330.5,347.664 1330.17,397.997 1330.5,448.5C 949.5,448.5 568.5,448.5 187.5,448.5C 187.5,384.5 187.5,320.5 187.5,256.5C 190.873,244.961 198.206,237.127 209.5,233C 215.026,231.046 220.693,229.713 226.5,229C 240.497,228.273 254.497,227.606 268.5,227C 609.5,226.333 950.5,226.333 1291.5,227C 1295.17,227.333 1298.83,227.667 1302.5,228C 1305.27,229.781 1308.27,231.115 1311.5,232C 1313.31,234.403 1315.64,236.07 1318.5,237C 1323.98,241.8 1327.81,247.633 1330,254.5C 1331.32,268.799 1331.82,283.133 1331.5,297.5 Z"/></g>
<g><path style="opacity:1" fill="#010101" d="M 315.5,239.5 C 319.839,238.846 323.673,239.846 327,242.5C 362.822,299.473 399.155,356.14 436,412.5C 439.729,417.274 441.062,422.607 440,428.5C 439.215,430.286 438.049,431.786 436.5,433C 362.248,434.66 287.915,434.994 213.5,434C 201.98,434.139 197.814,428.639 201,417.5C 237.583,360.002 273.917,302.335 310,244.5C 311.73,242.598 313.563,240.931 315.5,239.5 Z"/></g>
<g><path style="opacity:1" fill="#fafafa" d="M 316.5,292.5 C 322.694,290.993 327.194,292.993 330,298.5C 329.4,321.165 329.4,343.832 330,366.5C 328.336,370.084 325.503,371.751 321.5,371.5C 315.941,371.776 313.108,369.109 313,363.5C 312.333,341.833 312.333,320.167 313,298.5C 313.564,296.113 314.73,294.113 316.5,292.5 Z"/></g>
<g><path style="opacity:1" fill="#a1a1a1" d="M 187.5,256.5 C 187.5,320.5 187.5,384.5 187.5,448.5C 568.5,448.5 949.5,448.5 1330.5,448.5C 1330.17,397.997 1330.5,347.664 1331.5,297.5C 1331.5,348.167 1331.5,398.833 1331.5,449.5C 949.833,449.5 568.167,449.5 186.5,449.5C 186.168,384.998 186.501,320.665 187.5,256.5 Z"/></g>
<g><path style="opacity:1" fill="#f6f6f6" d="M 317.5,386.5 C 326.158,385.327 329.992,388.994 329,397.5C 324.611,403.521 319.944,403.854 315,398.5C 312.696,393.855 313.529,389.855 317.5,386.5 Z"/></g>
<g><path style="opacity:1" fill="#fefefe" d="M 186.5,465.5 C 568.167,465.5 949.833,465.5 1331.5,465.5C 1331.17,552.685 1331.51,639.851 1332.5,727C 1331.01,742.661 1323.68,754.661 1310.5,763C 1305.3,764.594 1299.97,765.594 1294.5,766C 942.167,766.667 589.833,766.667 237.5,766C 231.275,764.749 224.942,764.083 218.5,764C 213.343,763.197 208.343,761.864 203.5,760C 197.922,755.093 193.089,749.593 189,743.5C 188.055,739.886 187.388,736.219 187,732.5C 186.5,643.501 186.333,554.501 186.5,465.5 Z"/></g>
</svg>
